<?xml version="1.0" encoding="utf-8"?>
<!-- Generator: Adobe Illustrator 25.0.0, SVG Export Plug-In . SVG Version: 6.00 Build 0)  -->
<svg version="1.1" id="Capa_1" xmlns="http://www.w3.org/2000/svg" xmlns:xlink="http://www.w3.org/1999/xlink" x="0px" y="0px"
	 viewBox="0 0 162.7 64.1" style="enable-background:new 0 0 162.7 64.1;" xml:space="preserve">
<style type="text/css">
	.st0{fill:#6CDCC3;}
</style>
<path class="st0" d="M95,29.1l-27-27c-1.1-1-2.8-1-3.9,0L49.8,16.5L35.4,2.1c-1.1-1-2.8-1-3.9,0l-27,27c-1.1,1.1-1.1,2.8,0,3.9
	l27,27c1.1,1.1,2.8,1.1,3.9,0l14.4-14.4l14.4,14.4c1.1,1.1,2.8,1.1,3.9,0l27-27C96.1,31.9,96.1,30.2,95,29.1z M33.4,54.1l-23-23
	l23-23l12.5,12.5l-8.7,8.7c-1,1.1-1,2.8,0,3.9l8.7,8.7L33.4,54.1z M49.8,24.2l6.8,6.8l-6.8,6.8L43,31L49.8,24.2z M66.1,54.1
	L53.6,41.6l8.7-8.7c1-1.1,1-2.8,0-3.9l-8.7-8.7L66.1,8l23,23L66.1,54.1z"/>
<path class="st0" d="M158.9,29.1l-27-27c-1.1-1-2.8-1-3.9,0l-14.4,14.4L99.3,2.1c-1.1-1-2.8-1-3.9,0l-27,27c-1.1,1.1-1.1,2.8,0,3.9
	l27,27c1.1,1.1,2.8,1.1,3.9,0l14.4-14.4L128,59.9c1.1,1.1,2.8,1.1,3.9,0l27-27C160,31.9,160,30.2,158.9,29.1z M97.3,54.1l-23-23
	l23-23l12.5,12.5l-8.7,8.7c-1,1.1-1,2.8,0,3.9l8.7,8.7L97.3,54.1z M113.7,24.2l6.8,6.8l-6.8,6.8l-6.8-6.8L113.7,24.2z M130,54.1
	l-12.5-12.5l8.7-8.7c1-1.1,1-2.8,0-3.9l-8.7-8.7L130,8l23,23L130,54.1z"/>
</svg>
